<svg width="19" height="22" viewBox="0 0 19 22" fill="none" xmlns="http://www.w3.org/2000/svg">
<path d="M16.9643 11H6.44643V6.56995C6.44643 4.86839 7.79085 3.45472 9.47031 3.43754C11.1667 3.42035 12.5536 4.81683 12.5536 6.53128V7.21878C12.5536 7.79026 13.0074 8.25003 13.5714 8.25003H14.9286C15.4926 8.25003 15.9464 7.79026 15.9464 7.21878V6.53128C15.9464 2.92191 13.0413 -0.0128483 9.47879 4.23035e-05C5.91629 0.0129329 3.05357 2.98637 3.05357 6.59573V11H2.03571C0.91183 11 0 11.9238 0 13.0625V19.9375C0 21.0762 0.91183 22 2.03571 22H16.9643C18.0882 22 19 21.0762 19 19.9375V13.0625C19 11.9238 18.0882 11 16.9643 11ZM11.1964 17.5313C11.1964 18.4809 10.4373 19.25 9.5 19.25C8.56272 19.25 7.80357 18.4809 7.80357 17.5313V15.4688C7.80357 14.5192 8.56272 13.75 9.5 13.75C10.4373 13.75 11.1964 14.5192 11.1964 15.4688V17.5313Z" fill="white"/>
</svg>
