<svg width="20" height="20" viewBox="0 0 20 20" fill="none" xmlns="http://www.w3.org/2000/svg">
<path d="M0 10C0 4.47714 4.47714 0 10 0C15.5229 0 20 4.47714 20 10C20 15.5229 15.5229 20 10 20C4.47714 20 0 15.5229 0 10ZM2.92157 15.0753C4.5023 17.276 7.08359 18.7097 10 18.7097C12.9164 18.7097 15.4977 17.276 17.0784 15.0753C16.9518 13.987 16.1644 13.0734 15.0809 12.8025L13.7755 12.4762C12.7244 13.3786 11.4001 13.871 10 13.871C8.59992 13.871 7.2756 13.3786 6.22444 12.4762L4.91903 12.8025C3.83556 13.0734 3.04823 13.987 2.92157 15.0753V15.0753ZM5.48387 8.06452C5.48387 10.5587 7.50581 12.5806 10 12.5806C12.4942 12.5806 14.5161 10.5587 14.5161 8.06452C14.5161 5.57032 12.4942 3.54839 10 3.54839C7.50581 3.54839 5.48387 5.57032 5.48387 8.06452Z" fill="white"/>
</svg>
